<svg width="22" height="22" viewBox="0 0 22 22" fill="none" xmlns="http://www.w3.org/2000/svg">
<g opacity="0.7">
<path d="M19.4466 10.3734V3.96006C19.4466 3.82215 19.3918 3.68989 19.2943 3.59237C19.1968 3.49485 19.0645 3.44006 18.9266 3.44006H2.63328C2.49537 3.44006 2.3631 3.49485 2.26559 3.59237C2.16807 3.68989 2.11328 3.82215 2.11328 3.96006V10.3734M19.4466 10.3734H2.11328M19.4466 10.3734L18.7619 12.6129C18.6536 12.9679 18.4341 13.2787 18.1357 13.4997C17.8374 13.7206 17.4761 13.8399 17.1049 13.8401H15.9799M2.11328 10.3734L2.79795 12.6129C2.90634 12.9679 3.12584 13.2787 3.42415 13.4997C3.72246 13.7206 4.08381 13.8399 4.45501 13.8401H5.57995M15.9799 6.90673H16.8466M8.61328 13.4067C8.61328 13.4067 8.61328 19.4734 5.57995 19.4734M12.9466 13.4067C12.9466 13.4067 12.9466 19.4734 15.9799 19.4734M10.7799 13.4067V19.4734" stroke="#888888" stroke-width="1.3" stroke-linecap="round" stroke-linejoin="round"/>
</g>
</svg>
