<svg width="22" height="22" viewBox="0 0 22 22" fill="none" xmlns="http://www.w3.org/2000/svg">
<g opacity="0.7">
<path d="M18.89 8.91676H6.75667V6.31676C6.75667 5.36083 7.53407 4.58343 8.49001 4.58343C9.44594 4.58343 10.2233 5.36083 10.2233 6.31676H11.9567C11.9567 4.4049 10.4019 2.8501 8.49001 2.8501C6.57814 2.8501 5.02334 4.4049 5.02334 6.31676V8.91676H3.29001C3.06015 8.91676 2.83971 9.00807 2.67718 9.17061C2.51465 9.33314 2.42334 9.55358 2.42334 9.78343V11.5168C2.42334 13.7753 3.87414 15.6967 5.89001 16.4134V19.3168H7.62334V16.7168H14.5567V19.3168H16.29V16.4134C18.3059 15.6967 19.7567 13.7753 19.7567 11.5168V9.78343C19.7567 9.55358 19.6654 9.33314 19.5028 9.17061C19.3403 9.00807 19.1199 8.91676 18.89 8.91676ZM18.0233 11.5168C18.0233 13.4286 16.4685 14.9834 14.5567 14.9834H7.62334C5.71147 14.9834 4.15667 13.4286 4.15667 11.5168V10.6501H18.0233V11.5168Z" fill="#888888"/>
</g>
</svg>
