<svg width="24" height="25" viewBox="0 0 24 25" fill="none" xmlns="http://www.w3.org/2000/svg">
<g opacity="0.7">
<path d="M21 11.4399V8.65991C21 7.00991 19.65 5.65991 18 5.65991H14C13.23 5.65991 12.53 5.95991 12 6.43991C11.47 5.95991 10.77 5.65991 10 5.65991H6C4.35 5.65991 3 7.00991 3 8.65991V11.4399C2.39 11.9899 2 12.7799 2 13.6599V18.6599C2 19.2099 2.45 19.6599 3 19.6599C3.55 19.6599 4 19.2099 4 18.6599V17.6599H20V18.6599C20 19.2099 20.45 19.6599 21 19.6599C21.55 19.6599 22 19.2099 22 18.6599V13.6599C22 12.7799 21.61 11.9899 21 11.4399ZM14 7.65991H18C18.55 7.65991 19 8.10991 19 8.65991V10.6599H13V8.65991C13 8.10991 13.45 7.65991 14 7.65991ZM5 8.65991C5 8.10991 5.45 7.65991 6 7.65991H10C10.55 7.65991 11 8.10991 11 8.65991V10.6599H5V8.65991ZM4 15.6599V13.6599C4 13.1099 4.45 12.6599 5 12.6599H19C19.55 12.6599 20 13.1099 20 13.6599V15.6599H4Z" fill="#888888"/>
</g>
</svg>
