<svg width="22" height="22" viewBox="0 0 22 22" fill="none" xmlns="http://www.w3.org/2000/svg">
<g opacity="0.7">
<path fill-rule="evenodd" clip-rule="evenodd" d="M3.02002 7.3938C3.01979 7.10207 3.0771 6.81317 3.18866 6.54362C3.30022 6.27407 3.46384 6.02916 3.67016 5.82292C3.87648 5.61668 4.12145 5.45316 4.39104 5.3417C4.66064 5.23025 4.94956 5.17305 5.24129 5.1734H6.48669V3.44006H10.82V5.1734H12.5551C14.1635 5.17386 15.7058 5.81299 16.8431 6.95028C17.9804 8.08758 18.6196 9.62995 18.62 11.2383V16.8214C18.6202 17.1131 18.5629 17.402 18.4514 17.6716C18.3398 17.9411 18.1762 18.186 17.9699 18.3923C17.7636 18.5985 17.5186 18.762 17.249 18.8735C16.9794 18.9849 16.6905 19.0421 16.3988 19.0418H5.24129C4.65246 19.0413 4.08787 18.8073 3.67143 18.391C3.25498 17.9747 3.02071 17.4102 3.02002 16.8214V7.3938Z" stroke="#888888" stroke-width="1.29393" stroke-miterlimit="1.5" stroke-linecap="round" stroke-linejoin="round"/>
<path fill-rule="evenodd" clip-rule="evenodd" d="M10.8202 8.64001C10.8202 8.64001 13.4202 11.2339 13.4202 12.8754C13.4202 14.3097 12.2545 15.4754 10.8202 15.4754C9.38588 15.4754 8.23061 14.3097 8.22021 12.8754C8.22888 11.2331 10.8202 8.64001 10.8202 8.64001Z" stroke="#888888" stroke-width="1.3" stroke-miterlimit="1.5" stroke-linecap="round" stroke-linejoin="round"/>
</g>
</svg>
