<svg width="22" height="22" viewBox="0 0 22 22" fill="none" xmlns="http://www.w3.org/2000/svg">
<g opacity="0.7">
<path d="M8.02988 4.73999V2.13999C8.02988 1.9676 8.09837 1.80227 8.22027 1.68037C8.34216 1.55847 8.50749 1.48999 8.67988 1.48999C8.85228 1.48999 9.01761 1.55847 9.1395 1.68037C9.2614 1.80227 9.32988 1.9676 9.32988 2.13999V4.73999C9.32988 4.91238 9.2614 5.07771 9.1395 5.19961C9.01761 5.32151 8.85228 5.38999 8.67988 5.38999C8.50749 5.38999 8.34216 5.32151 8.22027 5.19961C8.09837 5.07771 8.02988 4.91238 8.02988 4.73999ZM11.2799 5.38999C11.4523 5.38999 11.6176 5.32151 11.7395 5.19961C11.8614 5.07771 11.9299 4.91238 11.9299 4.73999V2.13999C11.9299 1.9676 11.8614 1.80227 11.7395 1.68037C11.6176 1.55847 11.4523 1.48999 11.2799 1.48999C11.1075 1.48999 10.9422 1.55847 10.8203 1.68037C10.6984 1.80227 10.6299 1.9676 10.6299 2.13999V4.73999C10.6299 4.91238 10.6984 5.07771 10.8203 5.19961C10.9422 5.32151 11.1075 5.38999 11.2799 5.38999ZM13.8799 5.38999C14.0523 5.38999 14.2176 5.32151 14.3395 5.19961C14.4614 5.07771 14.5299 4.91238 14.5299 4.73999V2.13999C14.5299 1.9676 14.4614 1.80227 14.3395 1.68037C14.2176 1.55847 14.0523 1.48999 13.8799 1.48999C13.7075 1.48999 13.5422 1.55847 13.4203 1.68037C13.2984 1.80227 13.2299 1.9676 13.2299 2.13999V4.73999C13.2299 4.91238 13.2984 5.07771 13.4203 5.19961C13.5422 5.32151 13.7075 5.38999 13.8799 5.38999ZM21.4199 9.15999L19.0799 10.915V15.79C19.0799 16.4796 18.806 17.1409 18.3184 17.6285C17.8308 18.1161 17.1694 18.39 16.4799 18.39H6.07989C5.39032 18.39 4.729 18.1161 4.24141 17.6285C3.75381 17.1409 3.47989 16.4796 3.47989 15.79V10.915L1.13989 9.15999C1.00197 9.05656 0.910798 8.90257 0.886418 8.73191C0.862039 8.56126 0.906451 8.3879 1.00989 8.24999C1.11332 8.11208 1.2673 8.0209 1.43796 7.99652C1.60862 7.97214 1.78197 8.01656 1.91989 8.11999L3.47989 9.28999V7.33999C3.47989 7.1676 3.54837 7.00227 3.67027 6.88037C3.79216 6.75847 3.95749 6.68999 4.12989 6.68999H18.4299C18.6023 6.68999 18.7676 6.75847 18.8895 6.88037C19.0114 7.00227 19.0799 7.1676 19.0799 7.33999V9.28999L20.6399 8.11999C20.7778 8.01656 20.9512 7.97214 21.1218 7.99652C21.2925 8.0209 21.4464 8.11208 21.5499 8.24999C21.6533 8.3879 21.6977 8.56126 21.6734 8.73191C21.649 8.90257 21.5578 9.05656 21.4199 9.15999ZM17.7799 7.98999H4.77989V15.79C4.77989 16.1348 4.91685 16.4654 5.16065 16.7092C5.40444 16.953 5.7351 17.09 6.07989 17.09H16.4799C16.8247 17.09 17.1553 16.953 17.3991 16.7092C17.6429 16.4654 17.7799 16.1348 17.7799 15.79V7.98999Z" fill="#888888"/>
</g>
</svg>
