<svg width="21" height="22" viewBox="0 0 21 22" fill="none" xmlns="http://www.w3.org/2000/svg">
<path d="M6.06641 8.52002L10.3997 11.5534L14.7331 8.52002" stroke="#888888" stroke-width="1.3" stroke-linecap="round" stroke-linejoin="round"/>
<path d="M1.7334 15.4533V6.78668C1.7334 6.32697 1.91602 5.88609 2.24108 5.56103C2.56614 5.23596 3.00702 5.05334 3.46673 5.05334H17.3334C17.7931 5.05334 18.234 5.23596 18.559 5.56103C18.8841 5.88609 19.0667 6.32697 19.0667 6.78668V15.4533C19.0667 15.9131 18.8841 16.3539 18.559 16.679C18.234 17.0041 17.7931 17.1867 17.3334 17.1867H3.46673C3.00702 17.1867 2.56614 17.0041 2.24108 16.679C1.91602 16.3539 1.7334 15.9131 1.7334 15.4533Z" stroke="#888888" stroke-width="1.3"/>
</svg>
