<svg width="21" height="22" viewBox="0 0 21 22" fill="none" xmlns="http://www.w3.org/2000/svg">
<path d="M18.0672 13.3949L14.2395 11.6797L14.2289 11.6749C14.0302 11.5899 13.8135 11.5558 13.5982 11.5756C13.383 11.5955 13.1762 11.6687 12.9964 11.7886C12.9752 11.8026 12.9548 11.8178 12.9354 11.8341L10.9578 13.5201C9.70493 12.9115 8.41143 11.6277 7.80287 10.3911L9.49124 8.38343C9.50749 8.36311 9.52293 8.3428 9.53755 8.32086C9.6549 8.14155 9.7261 7.936 9.74481 7.72252C9.76352 7.50903 9.72917 7.29424 9.6448 7.09724V7.08749L7.92474 3.2533C7.81322 2.99595 7.62146 2.78158 7.37808 2.64217C7.13471 2.50276 6.85277 2.44581 6.57437 2.4798C5.4734 2.62467 4.46283 3.16536 3.73138 4.00088C2.99993 4.83639 2.59763 5.9096 2.59962 7.02005C2.59962 13.4713 7.84837 18.7201 14.2996 18.7201C15.4101 18.722 16.4833 18.3197 17.3188 17.5883C18.1543 16.8568 18.695 15.8463 18.8399 14.7453C18.8739 14.467 18.8171 14.1851 18.6778 13.9418C18.5386 13.6984 18.3244 13.5066 18.0672 13.3949ZM14.2996 17.4201C11.5423 17.417 8.89876 16.3204 6.94903 14.3706C4.99931 12.4209 3.90263 9.77738 3.89962 7.02005C3.89656 6.22664 4.18241 5.45923 4.70378 4.86116C5.22515 4.26309 5.94639 3.87524 6.7328 3.77005C6.73248 3.77329 6.73248 3.77656 6.7328 3.7798L8.43905 7.59855L6.75962 9.60868C6.74254 9.62826 6.72705 9.64918 6.7133 9.67124C6.59104 9.85886 6.51931 10.0749 6.50507 10.2984C6.49084 10.5219 6.53458 10.7452 6.63205 10.9469C7.36818 12.4524 8.88512 13.958 10.4069 14.6933C10.61 14.7899 10.8347 14.8321 11.059 14.8159C11.2833 14.7996 11.4995 14.7255 11.6866 14.6007C11.7075 14.5867 11.7276 14.5715 11.7467 14.5552L13.7219 12.8701L17.5407 14.5804H17.5496C17.4457 15.3679 17.0584 16.0906 16.4603 16.6132C15.8621 17.1359 15.094 17.4227 14.2996 17.4201Z" fill="#888888"/>
</svg>
