<svg width="22" height="22" viewBox="0 0 22 22" fill="none" xmlns="http://www.w3.org/2000/svg">
<g opacity="0.7">
<path d="M14.7466 14.9834H12.1466M14.7466 6.31673H12.1466M12.1466 10.6501H20.8133M20.8133 10.6501L19.0799 12.3834M20.8133 10.6501L19.0799 8.91673M1.74658 10.6501L3.47992 8.91673M1.74658 10.6501L3.47992 12.3834M1.74658 10.6501H7.81325M14.2266 19.3167H8.33325C8.26496 19.3167 8.19734 19.3033 8.13425 19.2771C8.07116 19.251 8.01384 19.2127 7.96555 19.1644C7.91727 19.1161 7.87896 19.0588 7.85283 18.9957C7.8267 18.9326 7.81325 18.865 7.81325 18.7967V2.5034C7.81325 2.36549 7.86803 2.23322 7.96555 2.1357C8.06307 2.03818 8.19534 1.9834 8.33325 1.9834H14.2266C14.3645 1.9834 14.4968 2.03818 14.5943 2.1357C14.6918 2.23322 14.7466 2.36549 14.7466 2.5034V18.7967C14.7466 18.9346 14.6918 19.0669 14.5943 19.1644C14.4968 19.2619 14.3645 19.3167 14.2266 19.3167Z" stroke="#888888" stroke-width="1.3" stroke-linecap="round" stroke-linejoin="round"/>
</g>
</svg>
