<svg width="21" height="22" viewBox="0 0 21 22" fill="none" xmlns="http://www.w3.org/2000/svg">
<g opacity="0.7">
<path d="M1.86328 14.7068V17.3068M3.59661 8.64013V6.9068C3.59661 6.44709 3.77923 6.00621 4.1043 5.68114C4.42936 5.35608 4.87024 5.17346 5.32995 5.17346H15.7299C16.1897 5.17346 16.6305 5.35608 16.9556 5.68114C17.2807 6.00621 17.4633 6.44709 17.4633 6.9068V8.64013" stroke="#888888" stroke-width="1.3" stroke-linecap="round" stroke-linejoin="round"/>
<path d="M19.1966 14.7068V17.3068M17.4633 8.64014C17.0036 8.64014 16.5627 8.82276 16.2376 9.14782C15.9126 9.47288 15.7299 9.91376 15.7299 10.3735V12.1068H5.32995V10.3735C5.32995 9.91376 5.14733 9.47288 4.82227 9.14782C4.4972 8.82276 4.05632 8.64014 3.59661 8.64014C3.13691 8.64014 2.69603 8.82276 2.37096 9.14782C2.0459 9.47288 1.86328 9.91376 1.86328 10.3735V15.5735H19.1966V10.3735C19.1966 9.91376 19.014 9.47288 18.6889 9.14782C18.3639 8.82276 17.923 8.64014 17.4633 8.64014Z" stroke="#888888" stroke-width="1.3" stroke-linecap="round" stroke-linejoin="round"/>
</g>
</svg>
